<svg width="528" height="869" viewBox="0 0 528 869" fill="none" xmlns="http://www.w3.org/2000/svg">
	<g filter="url(#filter0_d_1206_123)">
		<path d="M861 455.5C861 664.54 691.54 834 482.5 834C273.46 834 104 664.54 104 455.5C104 246.46 273.46 77 482.5 77C691.54 77 861 246.46 861 455.5ZM122.925 455.5C122.925 654.088 283.912 815.075 482.5 815.075C681.088 815.075 842.075 654.088 842.075 455.5C842.075 256.912 681.088 95.925 482.5 95.925C283.912 95.925 122.925 256.912 122.925 455.5Z" fill="#8166EF"/>
	</g>
	<g filter="url(#filter1_d_1206_123)">
		<path d="M772 393.5C772 602.54 602.54 772 393.5 772C184.46 772 15 602.54 15 393.5C15 184.46 184.46 15 393.5 15C602.54 15 772 184.46 772 393.5ZM33.925 393.5C33.925 592.088 194.912 753.075 393.5 753.075C592.088 753.075 753.075 592.088 753.075 393.5C753.075 194.912 592.088 33.925 393.5 33.925C194.912 33.925 33.925 194.912 33.925 393.5Z" fill="#8166EF"/>
	</g>
	<defs>
		<filter	id="filter0_d_1206_123" x="89" y="62" width="807" height="807" filterUnits="userSpaceOnUse" color-interpolation-filters="sRGB">
			<feFlood flood-opacity="0" result="BackgroundImageFix"/>
			<feColorMatrix in="SourceAlpha" type="matrix" values="0 0 0 0 0 0 0 0 0 0 0 0 0 0 0 0 0 0 127 0" result="hardAlpha"/>
			<feOffset dx="10" dy="10"/>
			<feGaussianBlur stdDeviation="12.5"/>
			<feComposite in2="hardAlpha" operator="out"/>
			<feColorMatrix type="matrix" values="0 0 0 0 0.505882 0 0 0 0 0.4 0 0 0 0 0.937255 0 0 0 0.15 0"/>
			<feBlend mode="normal" in2="BackgroundImageFix" result="effect1_dropShadow_1206_123"/>
			<feBlend mode="normal" in="SourceGraphic" in2="effect1_dropShadow_1206_123" result="shape"/>
		</filter>
		<filter id="filter1_d_1206_123" x="0" y="0" width="807" height="807" filterUnits="userSpaceOnUse" color-interpolation-filters="sRGB">
			<feFlood flood-opacity="0" result="BackgroundImageFix"/>
			<feColorMatrix in="SourceAlpha" type="matrix" values="0 0 0 0 0 0 0 0 0 0 0 0 0 0 0 0 0 0 127 0" result="hardAlpha"/>
			<feOffset dx="10" dy="10"/>
			<feGaussianBlur stdDeviation="12.5"/>
			<feComposite in2="hardAlpha" operator="out"/>
			<feColorMatrix type="matrix" values="0 0 0 0 0.505882 0 0 0 0 0.4 0 0 0 0 0.937255 0 0 0 0.15 0"/>
			<feBlend mode="normal" in2="BackgroundImageFix" result="effect1_dropShadow_1206_123"/>
			<feBlend mode="normal" in="SourceGraphic" in2="effect1_dropShadow_1206_123" result="shape"/>
		</filter>
	</defs>
</svg>