<svg width="33" height="33" viewBox="0 0 33 33" fill="#8166EF" xmlns="http://www.w3.org/2000/svg">
<path fill-rule="evenodd" clip-rule="evenodd" d="M16.5 0C7.39062 0 0 7.39062 0 16.5C0 25.6094 7.39062 33 16.5 33C25.5915 33 33 25.6094 33 16.5C33 7.39062 25.5915 0 16.5 0ZM27.3983 7.60513C29.4298 10.0792 30.554 13.1737 30.5841 16.3749C30.1194 16.2855 25.4664 15.3367 20.7776 15.928C20.669 15.6942 20.5796 15.444 20.4724 15.1938C20.1808 14.5054 19.8708 13.825 19.5429 13.1532C24.7321 11.0413 27.0944 7.99975 27.3983 7.60513ZM16.5 2.43513C20.0791 2.43513 23.3544 3.77575 25.8418 5.97713C25.5915 6.33463 23.4616 9.18087 18.4511 11.0591C16.1411 6.81862 13.5836 3.34538 13.189 2.80912C14.2743 2.5557 15.3855 2.42972 16.5 2.43375V2.43513ZM10.505 3.75787C10.8804 4.25975 13.3856 7.7495 15.73 11.9006C9.14375 13.6551 3.3275 13.6194 2.70187 13.6194C3.61488 9.25237 6.56838 5.61963 10.505 3.75787ZM2.398 16.5179V16.0889C3.00712 16.1068 9.84225 16.1961 16.8768 14.0841C17.2879 14.872 17.6632 15.6764 18.0208 16.4821C17.842 16.5358 17.6454 16.5894 17.4666 16.643C10.2011 18.9874 6.33463 25.3935 6.01288 25.9311C3.68557 23.3482 2.39773 19.9946 2.398 16.5179ZM16.5 30.602C13.2426 30.602 10.2369 29.4924 7.85675 27.632C8.107 27.1123 10.9698 21.5999 18.9159 18.8265C18.9516 18.8086 18.9709 18.8086 19.0052 18.7908C20.9921 23.9264 21.7965 28.2398 22.0124 29.4745C20.3115 30.2088 18.4511 30.602 16.5 30.602ZM24.3568 28.1861C24.2138 27.3268 23.4616 23.2114 21.6178 18.1459C26.0384 17.4487 29.9035 18.5941 30.3875 18.755C29.7784 22.6737 27.5234 26.0563 24.3568 28.1861Z" />
</svg>
