<svg width="111" height="32" viewBox="0 0 111 32" fill="#8166EF" xmlns="http://www.w3.org/2000/svg">
<path d="M17.4641 15.5668C18.2576 12.4707 19.051 9.32105 19.8445 6.11778C21.6077 5.90939 23.3709 5.7129 25.1341 5.52833C23.3709 11.3633 21.6077 16.9958 19.8445 22.4259C18.3016 22.7355 16.7588 23.0511 15.216 23.3726C14.3344 20.7111 13.4528 17.9842 12.5712 15.1917C11.6896 18.3176 10.808 21.4256 9.92636 24.5158C8.37803 24.8611 6.83246 25.2035 5.28965 25.5428C3.52643 20.2021 1.76322 14.7422 0 9.16327C1.76322 8.87748 3.52643 8.58871 5.28965 8.29696C6.0831 11.3097 6.87655 14.2897 7.66999 17.237C8.52956 14.0158 9.39188 10.7679 10.257 7.49316C11.7943 7.255 13.3371 7.01982 14.8854 6.78761C15.7395 9.77654 16.599 12.703 17.4641 15.5668Z" />
<path d="M40.6063 19.5233C38.9285 20.595 36.854 20.9612 34.391 20.863C31.9197 20.9523 29.8452 20.4879 28.1756 19.2911C26.473 18.014 25.63 16.2367 25.63 13.9325C25.63 11.5657 26.473 9.41334 28.1756 7.51996C29.87 5.60871 31.9445 4.59057 34.391 4.55484C36.8375 4.58164 38.9037 5.61764 40.6063 7.58247C42.3007 9.54731 43.152 11.789 43.152 14.2361C43.152 16.6028 42.3007 18.3623 40.6063 19.5233ZM30.5891 13.5841C30.5891 14.6559 30.9527 15.4954 31.68 16.1206C32.4074 16.7368 33.3083 17.0315 34.391 17.0405C35.4654 17.0673 36.3746 16.7993 37.1019 16.2009C37.8293 15.6115 38.1929 14.7809 38.1929 13.7003C38.1929 12.6017 37.8293 11.6461 37.1019 10.887C36.3746 10.1189 35.4654 9.717 34.391 9.70807C33.3083 9.69913 32.4074 10.0832 31.68 10.8244C30.9527 11.5657 30.5891 12.4946 30.5891 13.5841Z" />
<path d="M60.1036 25.1052C58.4258 26.5788 56.3596 26.8021 53.8883 25.8733C51.417 24.9534 49.3508 23.3815 47.673 21.2113C45.9786 19.1393 45.1273 16.9601 45.1273 14.5398C45.1273 12.048 45.9786 9.98493 47.673 8.35948C49.3673 6.71616 51.4418 6.06419 53.8883 6.4393C56.3348 6.83226 58.4093 8.12727 60.1036 10.3422C61.798 12.5928 62.6493 15.1828 62.6493 18.1122C62.6493 21.122 61.798 23.4976 60.1036 25.1052ZM50.0864 15.4597C50.0864 16.6743 50.45 17.746 51.1774 18.6927C51.9047 19.6483 52.8056 20.2824 53.8883 20.5772C54.971 20.8808 55.8719 20.7201 56.5993 20.077C57.3266 19.4161 57.6902 18.4248 57.6902 17.0851C57.6902 15.7633 57.3266 14.6023 56.5993 13.6288C55.8719 12.6642 54.971 12.0927 53.8883 11.8962C52.8056 11.7086 51.9047 11.9498 51.1774 12.6285C50.45 13.2894 50.0864 14.2361 50.0864 15.4597Z" />
<path d="M75.3279 8.92213C77.4934 8.94893 79.353 9.93134 80.9151 11.8962C82.4607 13.861 83.2293 16.3617 83.2293 19.4519C83.2293 22.667 82.4607 25.525 80.9151 27.9989C79.3778 30.571 77.5099 31.9553 75.3279 32C73.1955 31.8571 71.5508 30.6157 70.4019 28.4544C70.4019 29.2046 70.4019 29.9578 70.4019 30.7139C68.7489 30.3269 67.0959 29.8952 65.4429 29.4189C65.4484 19.5054 65.4511 10.1338 65.4511 1.30394C67.1042 1.51233 68.7572 1.70583 70.4102 1.88445C70.4102 4.84361 70.4102 7.88911 70.4102 11.0209C71.559 9.53838 73.2038 8.85068 75.3279 8.92213ZM71.4929 23.3279C72.245 24.4086 73.1955 24.998 74.3361 25.0695C75.485 25.1231 76.4189 24.6319 77.1462 23.6227C77.8984 22.6224 78.2703 21.3095 78.2703 19.6751C78.2703 18.0854 77.8984 16.8261 77.1462 15.9152C76.4189 14.9953 75.485 14.5308 74.3361 14.4862C73.1955 14.4326 72.245 14.8256 71.4929 15.674C70.7656 16.5225 70.4019 17.7282 70.4019 19.309C70.4019 20.9255 70.7656 22.2651 71.4929 23.3279Z" />
<path d="M90.9985 28.9366C89.3455 29.3117 87.6925 29.6749 86.0395 30.0262C86.0395 19.6722 86.0395 9.83906 86.0395 0.526933C87.6925 0.354266 89.3455 0.178621 90.9985 0C90.9985 9.37166 90.9985 19.0172 90.9985 28.9366Z" />
<path d="M110.802 19.2107C106.889 19.2703 102.977 19.5084 99.0652 19.9252C99.6107 21.5953 100.933 22.2562 103.032 21.9526C104.371 21.7829 105.429 21.2381 106.198 20.3092C107.526 20.982 108.851 21.6459 110.174 22.3009C108.562 24.5515 106.157 26.0519 102.966 26.7128C100.206 27.338 97.9825 26.9004 96.2882 25.3196C94.6351 23.6673 93.8086 21.3006 93.8086 18.2998C93.8086 15.3704 94.6186 12.8429 96.2551 10.7262C97.9081 8.63634 100.024 7.50209 102.603 7.3592C105 7.29668 107 8.31482 108.587 10.3511C110.19 12.3695 111 14.7273 111 17.3084C111 18.005 110.926 18.6391 110.802 19.2107ZM98.966 15.7097C101.335 15.5252 103.705 15.3912 106.074 15.3078C105.586 13.3966 104.421 12.4231 102.57 12.4767C100.652 12.5839 99.4454 13.6735 98.966 15.7097Z" />
</svg>
