<svg width="137" height="16" viewBox="0 0 137 16" fill="none" xmlns="http://www.w3.org/2000/svg">
<path d="M5.5 3.5C3 3.5 1 5.5 1 8C1 10.5 3 12.5 5.5 12.5C8 12.5 10 10.5 10 8C10 5.5 8 3.5 5.5 3.5Z" fill="white"/>
<path d="M136.207 8.70711C136.598 8.31658 136.598 7.68342 136.207 7.29289L129.843 0.928932C129.453 0.538408 128.819 0.538408 128.429 0.928932C128.038 1.31946 128.038 1.95262 128.429 2.34315L134.086 8L128.429 13.6569C128.038 14.0474 128.038 14.6805 128.429 15.0711C128.819 15.4616 129.453 15.4616 129.843 15.0711L136.207 8.70711ZM2 8C2 6.05228 3.55228 4.5 5.5 4.5V2.5C2.44772 2.5 0 4.94772 0 8H2ZM5.5 4.5C7.44772 4.5 9 6.05228 9 8H11C11 4.94772 8.55228 2.5 5.5 2.5V4.5ZM9 8C9 9.94772 7.44772 11.5 5.5 11.5V13.5C8.55228 13.5 11 11.0523 11 8H9ZM5.5 11.5C3.55228 11.5 2 9.94772 2 8H0C0 11.0523 2.44772 13.5 5.5 13.5V11.5ZM10 9H135.5V7H10V9Z" fill="#8166EF"/>
</svg>
