<svg width="100%" height="185" viewBox="0 0 957 185" preserveAspectRatio="none" fill="none" xmlns="http://www.w3.org/2000/svg">
<path d="M951.5 1C949 1 947 3 947 5.5C947 8 949 10 951.5 10C954 10 956 8 956 5.5C956 3 954 1 951.5 1Z" fill="white"/>
<path d="M7.29289 184.207C7.68342 184.598 8.31658 184.598 8.70711 184.207L15.0711 177.843C15.4616 177.453 15.4616 176.819 15.0711 176.429C14.6805 176.038 14.0474 176.038 13.6569 176.429L8 182.086L2.34315 176.429C1.95262 176.038 1.31946 176.038 0.928932 176.429C0.538408 176.819 0.538408 177.453 0.928932 177.843L7.29289 184.207ZM948 5.5C948 3.55228 949.552 2 951.5 2V0C948.448 0 946 2.44772 946 5.5H948ZM951.5 2C953.448 2 955 3.55228 955 5.5H957C957 2.44772 954.552 0 951.5 0V2ZM955 5.5C955 7.44772 953.448 9 951.5 9V11C954.552 11 957 8.55228 957 5.5H955ZM951.5 9C949.552 9 948 7.44772 948 5.5H946C946 8.55228 948.448 11 951.5 11V9ZM950.5 10V74.5H952.5V10H950.5ZM931.5 93.5H28V95.5H931.5V93.5ZM7 114.5V183.5H9V114.5H7ZM28 93.5C16.402 93.5 7 102.902 7 114.5H9C9 104.007 17.5066 95.5 28 95.5V93.5ZM950.5 74.5C950.5 84.9934 941.993 93.5 931.5 93.5V95.5C943.098 95.5 952.5 86.098 952.5 74.5H950.5Z" fill="#8166EF"/>
</svg>
